<?xml version="1.0" encoding="UTF-8"?>
<svg id="Layer_2" data-name="Layer 2" xmlns="http://www.w3.org/2000/svg" viewBox="0 0 155.37 155.04">
  <defs>
    <style>
      .cls-1 {
        stroke-miterlimit: 10;
      }

      .cls-1, .cls-2 {
        fill: none;
        stroke: #1f2123;
        stroke-width: 1.5px;
      }

      .cls-3 {
        fill: #1f2123;
      }

      .cls-3, .cls-4 {
        stroke-width: 0px;
      }

      .cls-2 {
        stroke-linejoin: bevel;
      }

      .cls-4 {
        fill: #042a4f;
      }
    </style>
  </defs>
  <g id="black_copy" data-name="black copy">
    <g>
      <g>
        <path class="cls-3" d="M10.54,108.73C-6.08,75.45,5.71,32.12,37.38,12.16,53.09,1.99,72.87-2.13,91.27,1.9c18.08,3.82,35.73,15.67,44.04,30.97-6.32-6.4-13.3-11.87-21-15.93-22.58-12.15-51.38-12.35-73.74.46C7.67,36.56-3.87,74.45,10.54,108.73h0Z"/>
        <path class="cls-3" d="M150.69,77.52c.28,35.75-25.68,70.12-61.93,75.04-11.85,1.44-24.11-.1-34.67-5.17-.13-.06-.06-.28.08-.24,11.27,2.19,22.6,2.51,33.83.47,22.44-3.89,42.86-16.77,53.95-36.98,5.51-10.06,8.47-21.57,8.48-33.12,0-.16.26-.17.25,0h0Z"/>
      </g>
      <path class="cls-4" d="M58.16,155.04c-20.2-4.44-40.75-14.72-51.16-33.38-3.47-6.11-5.79-12.79-7-19.59,2.42,6.48,5.29,12.71,9,18.37,11.17,17.62,30.44,26.95,49.16,34.6h0Z"/>
      <path class="cls-4" d="M105.99,0c27.69,6.15,45.16,34.67,48.75,61.37,1.19,9.13.81,18.58-2,27.27,2.21-17.91-1.77-35.9-9.65-51.9-7.89-15.91-20.25-29.98-37.1-36.73h0Z"/>
      <path class="cls-4" d="M130.05,111.3c-13.39,20.1-34.42,33.96-59.23,28,26.51.9,41.23-10.23,59.23-28h0Z"/>
      <path class="cls-4" d="M16.44,53.36c6.74-22.75,31.92-35.38,54.39-36.3,7.69-.28,15.53.79,22.5,3.88-11.12-2.18-22.3-1.47-33.13,1.23-17.77,4.48-34.93,14.52-43.76,31.19h0Z"/>
      <g>
        <g>
          <polyline class="cls-2" points="57.62 70.01 65.48 44.84 73.85 70.01"/>
          <line class="cls-2" x1="64.82" y1="62.67" x2="66.44" y2="70.01"/>
          <polyline class="cls-2" points="95.32 70.01 103.18 44.84 111.54 70.01"/>
          <line class="cls-2" x1="102.52" y1="62.67" x2="104.13" y2="70.01"/>
          <path class="cls-2" d="M51.94,67.84c0,.87-1.94,1.65-3.14,1.68-1.84.06-3.87,0-3.87,0"/>
          <path class="cls-2" d="M50.8,46.24c-.12-.14-2.04-1.74-4.33-1.39-2.33.36-3.68,2.49-3.74,4.33-.05,1.35.44,2.57,2.94,5.28,5.25,5.72,6.18,6.11,6.25,8.52.03,1.04.03,1.21.03,2.36"/>
          <path class="cls-2" d="M79.05,54.75v-10.27s2.97-.09,3.89.03c1.07.14,2.24.63,3.67,1.9.92.81,1.93,2.33,2.32,4.04.24,1.03.43,2.42.47,4.32.02,1.27.02,2.15-.69,3.61-.57,1.16-.89,1.49-1.57,2.2-1.52,1.59-2.87,2.21-4.08,2.33-.9.09-4.37.04-4.37.04"/>
          <line class="cls-2" x1="89.37" y1="70.01" x2="84.9" y2="61.97"/>
        </g>
        <g>
          <path class="cls-1" d="M18.36,83.83c.34-.49,4.37-6.58,11.04-6.47,6.25.11,11.76,4.41,12.41,10.71.52,5.05-1.31,9.69-5.17,12.14-5.93,3.76-12.69,1.03-13.21.8"/>
          <polyline class="cls-2" points="119.69 102.76 127.55 77.58 135.91 102.76"/>
          <line class="cls-2" x1="126.89" y1="95.42" x2="128.5" y2="102.76"/>
          <line class="cls-1" x1="47.42" y1="76.79" x2="47.42" y2="96.49"/>
          <path class="cls-2" d="M103.77,87.49v-10.27s2.97-.09,3.89.03c1.07.14,2.24.63,3.67,1.9.92.81,1.93,2.33,2.32,4.04.24,1.03.43,2.42.47,4.32.02,1.27.02,2.15-.69,3.61-.57,1.16-.89,1.49-1.57,2.2-1.52,1.59-2.87,2.21-4.08,2.33-.9.09-4.37.04-4.37.04"/>
          <line class="cls-2" x1="114.09" y1="102.76" x2="109.62" y2="94.71"/>
          <polyline class="cls-1" points="47.42 99.64 47.42 102.41 56.56 102.41"/>
          <line class="cls-2" x1="61.62" y1="76.79" x2="61.62" y2="102.68"/>
          <line class="cls-2" x1="98.83" y1="76.79" x2="98.83" y2="102.68"/>
          <line class="cls-2" x1="66.52" y1="76.79" x2="71.58" y2="95.97"/>
          <line class="cls-2" x1="80.45" y1="76.79" x2="72.74" y2="102.68"/>
          <polyline class="cls-2" points="94.26 77.03 85.84 77.03 85.84 90.45"/>
          <polyline class="cls-2" points="87.88 94.18 85.84 94.18 85.84 102.41 94.26 102.41"/>
        </g>
      </g>
    </g>
  </g>
</svg>