<?xml version="1.0" encoding="UTF-8"?>
<svg id="Layer_2" data-name="Layer 2" xmlns="http://www.w3.org/2000/svg" viewBox="0 0 232.85 30.94">
  <defs>
    <style>
      .cls-1 {
        stroke-miterlimit: 10;
      }

      .cls-1, .cls-2 {
        fill: none;
        stroke: #1f2123;
        stroke-width: 1.5px;
      }

      .cls-2 {
        stroke-linejoin: bevel;
      }
    </style>
  </defs>
  <g id="black_copy" data-name="black copy">
    <g>
      <path class="cls-1" d="M95.82,8.63c.4-.57,5.06-7.63,12.8-7.5,7.24.12,13.64,5.11,14.39,12.41.6,5.86-1.52,11.24-6,14.07-6.87,4.36-14.71,1.19-15.32.93"/>
      <polyline class="cls-2" points="18.02 30.58 27.14 1.39 36.84 30.58"/>
      <line class="cls-2" x1="26.37" y1="22.07" x2="28.24" y2="30.58"/>
      <polyline class="cls-2" points="61.74 30.58 70.85 1.39 80.55 30.58"/>
      <line class="cls-2" x1="70.09" y1="22.07" x2="71.96" y2="30.58"/>
      <polyline class="cls-2" points="213.32 30.58 222.44 1.39 232.14 30.58"/>
      <line class="cls-2" x1="221.67" y1="22.07" x2="223.55" y2="30.58"/>
      <line class="cls-1" x1="129.52" y1=".46" x2="129.52" y2="23.31"/>
      <path class="cls-2" d="M11.43,28.06c0,1.01-2.25,1.91-3.64,1.95-2.14.06-4.49,0-4.49,0"/>
      <path class="cls-2" d="M10.12,3.01c-.14-.17-2.37-2.02-5.02-1.62C2.39,1.8.83,4.28.75,6.41c-.06,1.57.51,2.98,3.4,6.13,6.09,6.63,7.17,7.09,7.24,9.88.03,1.21.03,1.41.03,2.74"/>
      <path class="cls-2" d="M42.87,12.88V.97s3.45-.1,4.51.04c1.25.17,2.59.73,4.26,2.21,1.06.94,2.23,2.7,2.69,4.68.28,1.2.5,2.81.55,5.01.03,1.47.03,2.49-.8,4.18-.66,1.34-1.03,1.72-1.82,2.55-1.76,1.85-3.33,2.56-4.73,2.7-1.04.11-5.06.04-5.06.04"/>
      <line class="cls-2" x1="54.84" y1="30.58" x2="49.66" y2="21.25"/>
      <path class="cls-2" d="M194.86,12.88V.97s3.45-.1,4.51.04c1.25.17,2.59.73,4.26,2.21,1.06.94,2.23,2.7,2.69,4.68.28,1.2.5,2.81.55,5.01.03,1.47.03,2.49-.8,4.18-.66,1.34-1.03,1.72-1.82,2.55-1.76,1.85-3.33,2.56-4.73,2.7-1.04.11-5.06.04-5.06.04"/>
      <line class="cls-2" x1="206.83" y1="30.58" x2="201.65" y2="21.25"/>
      <polyline class="cls-1" points="129.52 26.97 129.52 30.18 140.12 30.18"/>
      <line class="cls-2" x1="145.99" y1=".46" x2="145.99" y2="30.49"/>
      <line class="cls-2" x1="189.14" y1=".46" x2="189.14" y2="30.49"/>
      <line class="cls-2" x1="151.67" y1=".46" x2="157.54" y2="22.71"/>
      <line class="cls-2" x1="167.82" y1=".46" x2="158.88" y2="30.49"/>
      <polyline class="cls-2" points="183.84 .75 174.07 .75 174.07 16.31"/>
      <polyline class="cls-2" points="176.43 20.63 174.07 20.63 174.07 30.18 183.84 30.18"/>
    </g>
  </g>
</svg>