<?xml version="1.0" encoding="utf-8"?>
<!-- Generator: Adobe Illustrator 16.0.0, SVG Export Plug-In . SVG Version: 6.00 Build 0)  -->
<!DOCTYPE svg PUBLIC "-//W3C//DTD SVG 1.1//EN" "http://www.w3.org/Graphics/SVG/1.1/DTD/svg11.dtd">
<svg version="1.1" id="Layer_1" xmlns="http://www.w3.org/2000/svg" xmlns:xlink="http://www.w3.org/1999/xlink" x="0px" y="0px"
	 width="310.212px" height="44.782px" viewBox="0 0 310.212 44.782" enable-background="new 0 0 310.212 44.782"
	 xml:space="preserve">
<path fill="#e3e3e3" d="M30.533,0.646c0,0-0.395,0.01-1.135,0.027c-0.37,0.009-0.826,0.02-1.363,0.033
	c-0.269,0.006-0.557,0.012-0.864,0.02c-0.304,0.025-0.623,0.08-0.96,0.122c-0.667,0.09-1.405,0.189-2.208,0.298
	c-0.795,0.155-1.655,0.384-2.565,0.59c-0.919,0.17-1.854,0.55-2.847,0.882c-0.491,0.184-1.01,0.316-1.517,0.532
	c-0.504,0.219-1.02,0.444-1.547,0.673c-0.521,0.24-1.071,0.436-1.596,0.721c-0.525,0.283-1.06,0.571-1.604,0.864
	c-1.105,0.544-2.168,1.256-3.281,1.941C7.926,8.023,6.89,8.892,5.771,9.676l-0.767,0.649l-0.607,0.6
	c-0.359,0.428-0.689,0.876-0.79,1.224c-0.09,0.352-0.07,0.514,0.073,0.812c0.149,0.296,0.509,0.686,0.975,1.043
	c0.935,0.73,2.244,1.349,3.563,1.92c2.702,1.125,5.666,1.945,8.716,2.838c3.194,0.989,6.177,2.355,8.983,4.209
	c1.392,0.941,2.738,2.036,3.831,3.523c0.538,0.747,1.024,1.594,1.303,2.564c0.124,0.495,0.276,0.975,0.261,1.502
	c0.026,0.519,0.035,1.031-0.097,1.52c-0.093,0.499-0.201,0.988-0.42,1.402L30.5,34.127l-0.075,0.159l-0.038,0.079
	c-0.033,0.057,0.047-0.071-0.08,0.138l-0.019,0.028l-0.153,0.225c-0.109,0.154-0.189,0.286-0.321,0.459l-0.479,0.563
	c-0.335,0.392-0.633,0.6-0.951,0.9c-1.278,1.04-2.611,1.741-3.906,2.342c-2.59,1.192-5.118,1.879-7.355,2.545
	c-1.14,0.328-2.233,0.642-3.272,0.94c-1.026,0.301-2.074,0.49-3.013,0.718c-1.884,0.491-3.59,0.62-4.955,0.847
	c-1.38,0.166-2.483,0.145-3.219,0.199c-0.738,0.026-1.132,0.041-1.132,0.041s0.385-0.094,1.106-0.27
	c0.718-0.181,1.776-0.39,3.093-0.752c0.653-0.203,1.375-0.429,2.163-0.674c0.788-0.229,1.626-0.52,2.51-0.859
	c1.765-0.615,3.78-1.479,5.941-2.352c2.2-0.919,4.543-1.833,6.795-3.054c1.111-0.614,2.201-1.319,3.065-2.145
	c0.178-0.205,0.45-0.439,0.558-0.613c0.07-0.089,0.142-0.175,0.218-0.259c0.084-0.114,0.187-0.296,0.28-0.44l0.143-0.231
	l0.018-0.029c-0.114,0.191-0.027,0.04-0.05,0.077l0.016-0.046l0.033-0.092l0.14-0.359c0.131-0.237,0.145-0.475,0.177-0.703
	c0.129-0.905-0.2-1.822-0.958-2.764c-0.757-0.924-1.834-1.784-3.006-2.561c-2.375-1.528-5.187-2.774-8.008-3.599
	c-2.966-0.92-6.069-1.816-9.068-3.115c-1.505-0.67-2.997-1.401-4.41-2.604c-0.695-0.605-1.408-1.331-1.893-2.399
	c-0.508-1.058-0.516-2.491-0.09-3.521c0.41-1.049,1.035-1.745,1.633-2.393c0.322-0.293,0.671-0.622,0.98-0.865l0.92-0.666
	C5.101,6.264,6.271,5.43,7.519,4.797C8.762,4.16,9.93,3.472,11.166,3.011c0.605-0.25,1.201-0.495,1.785-0.735
	c0.583-0.241,1.19-0.395,1.764-0.589c0.578-0.183,1.144-0.362,1.696-0.538c0.553-0.17,1.119-0.263,1.658-0.381
	c1.086-0.212,2.095-0.472,3.084-0.528c0.981-0.086,1.883-0.223,2.734-0.24c0.852,0.021,1.634,0.04,2.341,0.057
	c0.35,0.013,0.681,0.011,0.988,0.034c0.303,0.05,0.588,0.098,0.853,0.142c0.529,0.089,0.979,0.165,1.344,0.226
	C30.144,0.581,30.533,0.646,30.533,0.646z"/>
<path fill="#e3e3e3" d="M49.566,27.532c0.16-0.649,0.243-1.346,0.037-1.953c-0.199-0.614-0.737-0.999-1.333-1.171
	c-1.219-0.33-2.563-0.175-3.847,0.054c-1.294,0.241-2.568,0.617-3.823,1.027c-0.626,0.209-1.248,0.437-1.852,0.683
	c-0.301,0.124-0.598,0.251-0.867,0.389l-0.875,0.452c-1.153,0.618-2.249,1.328-3.272,2.099c-1.021,0.771-1.956,1.636-2.694,2.596
	c-0.739,0.956-1.265,2.012-1.43,3.075c-0.171,1.063,0.017,2.13,0.478,3.155c0.053,0.109,0.132,0.296,0.163,0.343l0.244,0.442
	c0.142,0.208,0.262,0.395,0.442,0.609c0.336,0.407,0.722,0.752,1.153,1.027c0.86,0.552,1.912,0.822,3.021,0.842
	c2.218,0.027,4.616-0.837,6.4-2.226c0.223-0.173,0.435-0.355,0.63-0.546l0.147-0.143l0.13-0.14l0.343-0.37
	c0.256-0.262,0.372-0.449,0.565-0.674c0.177-0.209,0.347-0.475,0.521-0.708c0.676-0.975,1.209-2.044,1.614-3.172
	c0.806-2.258,1.151-4.736,1.159-7.277l3.891,0.021c0.005,1.939-0.117,3.784-0.111,5.54c0.003,1.748,0.129,3.429,0.625,4.791
	c0.466,1.375,1.298,2.377,2.556,3.094c0.312,0.179,0.65,0.335,1,0.48l0.599,0.224l0.53,0.168c0.744,0.22,1.482,0.337,2.119,0.315
	c1.293-0.054,1.979-0.55,2.549-1.813c0.571-1.296,0.623-2.581,0.144-4.086c-0.449-1.512-1.386-3.154-1.994-5.187
	c-0.149-0.508-0.273-1.039-0.355-1.59c-0.037-0.277-0.069-0.556-0.084-0.839l-0.012-0.263l-0.001-0.173
	c-0.003-0.092,0.012-0.355,0.025-0.523c0.107-1.367,0.884-2.719,1.888-3.504c0.996-0.806,2.091-1.229,3.15-1.481
	c1.065-0.249,2.121-0.327,3.162-0.292c2.073,0.094,4.137,0.561,6.011,1.773c0.922,0.608,1.802,1.488,2.286,2.663
	c0.498,1.159,0.427,2.549,0.083,3.542c-0.363,1.112-0.833,1.905-1.308,2.751l-1.438,2.386c-0.922,1.56-1.846,3.111-2.272,4.728
	c-0.202,0.801-0.28,1.611-0.087,2.349c-0.005,0.059,0.145,0.462,0.184,0.497c0.05,0.109,0.165,0.276,0.282,0.395
	c0.238,0.26,0.563,0.478,0.926,0.657c1.503,0.708,3.396,0.843,5.203,0.9c1.831,0.065,3.685-0.048,5.536,0.019
	c-1.839,0.158-3.655,0.516-5.517,0.66c-1.856,0.117-3.759,0.235-5.712-0.429c-0.482-0.183-0.966-0.44-1.391-0.823
	c-0.218-0.195-0.399-0.394-0.577-0.683c-0.209-0.354-0.228-0.388-0.361-0.77c-0.355-1.037-0.319-2.133-0.147-3.128
	c0.382-2.002,1.249-3.74,2.107-5.396l1.278-2.438c0.392-0.78,0.784-1.634,0.95-2.293c0.39-1.472-0.237-2.456-1.522-3.239
	c-1.271-0.749-2.956-1.084-4.554-1.063c-1.582,0.015-3.25,0.449-4.108,1.25c-0.414,0.397-0.598,0.778-0.632,1.263
	c0.005,0.063-0.009,0.029-0.003,0.168l0.006,0.173l0.001,0.043c-0.001-0.021,0.002,0.08-0.001-0.043l0.002,0.017l0.007,0.066
	c0.014,0.178,0.042,0.356,0.07,0.536c0.066,0.36,0.162,0.727,0.285,1.1c0.477,1.506,1.438,3.079,2.135,5.081
	c0.344,0.997,0.593,2.135,0.586,3.314c0,0.587-0.059,1.181-0.182,1.751c-0.048,0.266-0.155,0.642-0.226,0.877l-0.109,0.328
	c-0.08,0.225-0.12,0.296-0.183,0.451c-0.44,1.073-1.177,2.196-2.284,3c-1.098,0.826-2.458,1.155-3.649,1.204
	c-1.209,0.047-2.314-0.148-3.342-0.436l-0.791-0.245l-0.7-0.254c-0.505-0.201-1.008-0.428-1.499-0.703
	c-0.981-0.549-1.922-1.281-2.686-2.187c-0.757-0.907-1.338-1.955-1.705-3.012c-0.733-2.136-0.803-4.207-0.799-6.135
	c0.016-1.936,0.156-3.776,0.166-5.528l3.891,0.021c-0.054,2.836-0.412,5.786-1.521,8.577c-0.547,1.391-1.268,2.733-2.164,3.947
	c-0.236,0.3-0.44,0.598-0.705,0.897c-0.25,0.281-0.537,0.637-0.761,0.849l-0.354,0.36l-0.222,0.223l-0.222,0.202
	c-0.296,0.271-0.604,0.519-0.919,0.749c-1.263,0.926-2.645,1.603-4.102,2.067c-1.455,0.466-3.006,0.684-4.59,0.577
	c-1.574-0.104-3.217-0.588-4.582-1.569c-0.68-0.485-1.278-1.083-1.765-1.741c-0.239-0.314-0.473-0.701-0.678-1.07l-0.222-0.454
	c-0.124-0.253-0.162-0.384-0.246-0.581c-0.583-1.45-0.799-3.17-0.408-4.755c0.367-1.588,1.214-2.947,2.195-4.053
	c1.996-2.211,4.474-3.637,7.01-4.748l0.958-0.395c0.345-0.14,0.681-0.248,1.013-0.352c0.665-0.206,1.329-0.384,1.998-0.544
	c1.336-0.324,2.695-0.551,4.072-0.666c1.368-0.084,2.804-0.145,4.154,0.416c0.661,0.276,1.272,0.86,1.398,1.585
	C49.991,26.222,49.804,26.908,49.566,27.532z"/>
<path fill="#e3e3e3" d="M94.566,24.531c-0.657-1.154-1.615-2.134-2.764-2.567c-1.142-0.461-2.398-0.312-3.537,0.08
	c-1.149,0.403-2.213,1.074-3.171,1.862c-0.956,0.793-1.838,1.686-2.597,2.671c-1.507,1.963-2.651,4.237-3.041,6.508
	c-0.386,2.29,0.189,4.398,1.704,5.811c0.768,0.729,1.599,1.166,2.561,1.354c0.947,0.178,1.965,0.078,2.96-0.226
	c0.995-0.31,1.952-0.857,2.774-1.554c0.411-0.349,0.79-0.736,1.124-1.153c0.168-0.207,0.326-0.422,0.468-0.645l0.054-0.083
	l0.027-0.042l0.013-0.021l0.007-0.011c-0.016,0.027,0.046-0.075-0.034,0.059l0.122-0.217l0.244-0.433
	c0.19-0.313,0.249-0.511,0.368-0.754c0.113-0.217,0.207-0.502,0.311-0.766c0.21-0.532,0.385-1.087,0.523-1.661
	c0.288-1.144,0.457-2.352,0.553-3.594c0.198-2.49,0.07-5.098,0.144-7.813h3.704c-0.042,1.667-0.17,3.213-0.262,4.773
	c-0.101,1.553-0.161,3.092-0.207,4.613c-0.034,1.519-0.011,3.03,0.171,4.458c0.093,0.711,0.234,1.396,0.44,1.997
	c0.114,0.306,0.208,0.544,0.378,0.819c0.207,0.375,0.375,0.612,0.547,0.873c0.79,1.092,1.869,1.956,3.158,2.53
	c1.289,0.567,2.745,0.913,4.252,1.056c1.508,0.14,3.06,0.144,4.621,0.095c1.56-0.057,3.137-0.157,4.714-0.179
	c-3.068,0.684-6.119,1.521-9.384,1.626c-1.622,0.044-3.315-0.061-4.963-0.612c-1.645-0.529-3.223-1.519-4.418-2.861
	c-0.308-0.359-0.616-0.745-0.819-1.04c-0.275-0.372-0.518-0.847-0.7-1.266c-0.365-0.861-0.589-1.709-0.758-2.544
	c-0.327-1.669-0.454-3.3-0.528-4.916c-0.08-1.615-0.043-3.212-0.016-4.793c0.029-1.574,0.091-3.16,0.068-4.63h3.704
	c0.079,2.583,0.218,5.279,0.051,8.081c-0.087,1.4-0.258,2.829-0.595,4.262c-0.162,0.715-0.375,1.432-0.638,2.136
	c-0.137,0.353-0.262,0.694-0.452,1.067c-0.173,0.352-0.364,0.77-0.525,1.021l-0.25,0.429l-0.125,0.215l-0.208,0.316
	c-0.22,0.332-0.46,0.648-0.713,0.951c-0.504,0.608-1.065,1.164-1.672,1.663c-1.214,0.993-2.612,1.773-4.156,2.231
	c-1.535,0.465-3.246,0.567-4.891,0.168c-1.635-0.375-3.182-1.338-4.267-2.497c-1.119-1.156-1.959-2.675-2.294-4.265
	c-0.338-1.595-0.227-3.191,0.127-4.647c0.724-2.927,2.312-5.396,4.263-7.425c0.98-1.013,2.054-1.937,3.256-2.681
	c1.198-0.743,2.506-1.347,3.919-1.639c1.396-0.292,2.975-0.182,4.22,0.571C93.398,22.027,94.136,23.292,94.566,24.531z"/>
<path fill="#e3e3e3" d="M149.039,6.063c0,0-0.482,0.111-1.386,0.319c-0.91,0.212-2.169,0.651-3.693,1.387
	c-1.496,0.782-3.195,1.941-4.779,3.623c-1.58,1.682-3,3.896-4.059,6.505c-0.499,1.317-0.943,2.719-1.209,4.212
	c-0.155,0.741-0.261,1.501-0.347,2.277c-0.061,0.385-0.076,0.778-0.096,1.173l-0.032,0.593l-0.016,0.299l-0.004,0.074l-0.002,0.037
	c-0.001,0.033,0.002-0.159,0.001-0.059l0.007,0.158c0.019,0.424,0.038,0.851,0.057,1.279c0.016,0.207,0.006,0.448,0.042,0.628
	l0.109,0.535c0.081,0.358,0.112,0.711,0.22,1.077c0.122,0.366,0.245,0.735,0.369,1.106c0.595,1.436,1.371,2.835,2.506,4.011
	c1.131,1.171,2.492,2.169,4.005,2.97c1.543,0.755,3.212,1.31,4.941,1.701c1.742,0.354,3.545,0.472,5.345,0.417l1.348-0.113
	l0.337-0.026c-0.197,0.029-0.029,0.003-0.061,0.008l0.045-0.008l0.091-0.017l0.182-0.033l0.727-0.131
	c0.473-0.095,0.997-0.162,1.428-0.277l1.227-0.372c3.398-0.976,6.577-3.029,9.009-5.574c2.468-2.548,4.126-5.734,4.812-9.004
	c0.712-3.262,0.286-6.662-0.77-9.536c-0.324-0.767-0.614-1.62-0.974-2.224c-0.17-0.33-0.339-0.658-0.506-0.982
	c-0.202-0.317-0.403-0.632-0.602-0.944c-0.782-1.268-1.755-2.328-2.754-3.277c-2.069-1.819-4.429-2.955-6.656-3.499
	c-2.236-0.541-4.303-0.551-5.987-0.408c-0.839,0.11-1.6,0.184-2.245,0.345c-0.65,0.137-1.211,0.242-1.646,0.395
	c-0.888,0.263-1.362,0.404-1.362,0.404s0.446-0.215,1.283-0.62c0.415-0.219,0.957-0.408,1.595-0.644
	c0.63-0.267,1.392-0.445,2.247-0.666c1.716-0.367,3.895-0.662,6.397-0.311c2.487,0.326,5.296,1.31,7.833,3.229
	c1.234,0.984,2.456,2.124,3.475,3.496c0.257,0.341,0.521,0.682,0.771,1.04c0.228,0.383,0.457,0.769,0.688,1.158
	c0.509,0.802,0.791,1.53,1.175,2.302c0.412,0.902,0.637,1.745,0.966,2.644c0.282,0.896,0.414,1.85,0.625,2.795
	c0.107,0.96,0.182,1.947,0.194,2.938c-0.032,0.497-0.064,0.995-0.098,1.496c-0.022,0.503-0.068,1.006-0.186,1.499
	c-0.097,0.498-0.195,0.997-0.293,1.499c-0.091,0.504-0.293,0.978-0.438,1.472c-0.172,0.483-0.291,0.992-0.512,1.459l-0.649,1.415
	c-0.2,0.483-0.472,0.927-0.745,1.372l-0.817,1.344l-0.968,1.244c-0.319,0.42-0.648,0.833-1.028,1.2
	c-2.894,3.082-6.528,5.521-10.714,6.78l-1.617,0.446c-0.523,0.126-0.983,0.177-1.477,0.269l-0.729,0.123l-0.471,0.076l-0.399,0.029
	l-1.594,0.112c-2.127,0.045-4.249-0.121-6.312-0.567c-2.058-0.469-4.045-1.2-5.885-2.2c-1.821-1.041-3.48-2.345-4.862-3.891
	c-1.379-1.554-2.383-3.4-3.002-5.299c-0.128-0.482-0.256-0.963-0.383-1.44c-0.11-0.485-0.146-1.012-0.213-1.509l-0.084-0.752
	c-0.025-0.247-0.001-0.44-0.004-0.662c0.006-0.43,0.013-0.856,0.019-1.28l0.002-0.159l0.004-0.138l0.004-0.042l0.009-0.083
	l0.038-0.333l0.075-0.66c0.049-0.438,0.093-0.873,0.184-1.299c0.147-0.856,0.31-1.695,0.555-2.5c0.431-1.623,1.045-3.13,1.713-4.529
	c1.376-2.788,3.195-5.043,5.094-6.675c1.891-1.656,3.869-2.635,5.519-3.25c0.847-0.263,1.584-0.529,2.272-0.618
	c0.675-0.124,1.236-0.246,1.701-0.255C148.546,6.1,149.039,6.063,149.039,6.063z"/>
<path fill="#e3e3e3" d="M170.274,44.233c3.733-2.595,7.002-5.754,9.608-9.339c1.291-1.802,2.414-3.704,3.337-5.688
	c0.919-1.986,1.604-4.064,2.089-6.174c0.476-2.113,0.75-4.267,0.767-6.427c0.006-1.08-0.019-2.159-0.124-3.235
	c-0.03-0.539-0.094-1.075-0.159-1.612l-0.047-0.402l-0.012-0.101c0.008,0.058-0.008-0.044-0.01-0.058l-0.035-0.21
	c-0.039-0.176-0.079-0.347-0.148-0.541c-0.248-0.737-0.725-1.263-1.178-1.434c-0.441-0.176-0.912-0.11-1.495,0.274
	c-0.282,0.202-0.573,0.448-0.835,0.803c-0.429,0.481-0.563,0.767-0.809,1.134c-0.492,0.8-0.862,1.725-1.172,2.686
	c-0.609,1.936-0.896,4.069-1.037,6.232c-0.071,1.085-0.107,2.18-0.118,3.292c-0.008,1.133-0.038,2.207,0.008,3.283
	c0.079,2.158,0.317,4.303,0.816,6.327c0.496,2.019,1.3,3.91,2.449,5.358c1.155,1.446,2.728,2.329,4.607,2.546
	c1.964,0.223,3.821-0.066,5.205-1.133c1.401-1.061,2.333-2.94,2.949-4.974c0.624-2.046,1.037-4.248,1.498-6.495l2.264,0.187
	c-0.078,1.872-0.206,3.664-0.244,5.459c-0.029,1.786,0.034,3.573,0.429,5.266c0.204,0.84,0.478,1.66,0.908,2.387
	c0.211,0.365,0.462,0.705,0.756,1.003c0.287,0.308,0.627,0.558,0.988,0.782c0.185,0.104,0.381,0.189,0.572,0.288l0.613,0.216
	l0.643,0.15l0.662,0.082c0.445,0.022,0.898,0.042,1.351,0.001c0.456-0.011,0.904-0.094,1.361-0.146
	c-0.441,0.117-0.879,0.272-1.335,0.345c-0.452,0.102-0.916,0.144-1.383,0.182l-0.707,0.005l-0.711-0.069l-0.707-0.153
	c-0.228-0.083-0.462-0.156-0.688-0.252c-0.442-0.208-0.876-0.458-1.254-0.779c-0.387-0.312-0.728-0.68-1.021-1.075
	c-0.593-0.791-1.023-1.683-1.328-2.596c-0.61-1.832-0.848-3.721-0.993-5.582c-0.15-1.861-0.127-3.727-0.191-5.51l2.264,0.187
	c-0.283,2.223-0.47,4.527-1.036,6.861c-0.286,1.166-0.659,2.346-1.219,3.501c-0.561,1.15-1.337,2.281-2.389,3.203
	c-1.053,0.916-2.353,1.572-3.677,1.89c-0.334,0.078-0.655,0.141-1,0.194c-0.337,0.039-0.746,0.095-0.996,0.101l-0.424,0.023
	c-0.257,0.01-0.353,0-0.537,0c-0.327-0.001-0.654-0.008-0.985-0.047c-1.319-0.112-2.671-0.462-3.91-1.085
	c-1.236-0.628-2.325-1.521-3.21-2.532c-1.775-2.043-2.706-4.473-3.341-6.825c-0.614-2.374-0.898-4.759-1.015-7.127
	c-0.057-1.189-0.064-2.384-0.034-3.518c0.025-1.155,0.077-2.326,0.168-3.503c0.186-2.351,0.516-4.749,1.294-7.135
	c0.397-1.188,0.887-2.38,1.594-3.508c0.376-0.579,0.87-1.243,1.214-1.593c0.443-0.534,1.02-1.041,1.682-1.463
	c0.667-0.418,1.466-0.75,2.349-0.851c0.879-0.11,1.822,0.036,2.628,0.413c1.644,0.764,2.604,2.247,3.03,3.654
	c0.11,0.344,0.192,0.728,0.253,1.109l0.027,0.211l0.02,0.152l0.01,0.111l0.036,0.444c0.052,0.591,0.1,1.183,0.114,1.777
	c0.049,1.187,0.008,2.377-0.065,3.563c-0.155,2.372-0.591,4.723-1.243,7c-0.663,2.276-1.62,4.455-2.762,6.505
	c-0.572,1.025-1.208,2.012-1.874,2.972c-0.69,0.943-1.412,1.859-2.188,2.727C178.114,39.429,174.362,42.243,170.274,44.233z"/>
<path fill="#e3e3e3" d="M204.296,27.037c0,0,0.499,0.551,1.133,1.677c0.64,1.112,1.441,2.752,2.343,4.68
	c0.459,0.96,0.965,1.987,1.512,3.027c0.55,1.033,1.162,2.099,1.864,2.988c0.355,0.434,0.725,0.83,1.085,1.094
	c0.366,0.267,0.675,0.368,0.924,0.383c0.129,0.009,0.258,0.002,0.418-0.047l0.118-0.031l0.03-0.006
	c0.026-0.008-0.208,0.069-0.102,0.033l0.016-0.006l0.031-0.012l0.124-0.049c0.156-0.063,0.354-0.129,0.478-0.186
	c0.242-0.13,0.726-0.445,1.072-0.793c0.756-0.71,1.388-1.758,1.934-2.884c0.534-1.136,0.983-2.363,1.385-3.581
	c0.398-1.221,0.759-2.438,1.097-3.604c0.336-1.167,0.673-2.282,0.994-3.315c0.62-2.069,1.281-3.796,1.848-4.957
	c0.563-1.168,1.029-1.745,1.029-1.745s-0.03,0.18-0.086,0.517c-0.06,0.333-0.105,0.829-0.179,1.445
	c-0.123,1.245-0.198,3.017-0.354,5.163c-0.137,2.148-0.352,4.67-0.92,7.409c-0.295,1.367-0.661,2.795-1.264,4.233
	c-0.594,1.437-1.407,2.917-2.714,4.202c-0.692,0.631-1.382,1.159-2.44,1.616c-0.202,0.083-0.345,0.127-0.52,0.19l-0.126,0.043
	l-0.181,0.06l-0.1,0.022l-0.4,0.084c-0.528,0.105-1.119,0.124-1.685,0.039c-1.152-0.155-2.128-0.736-2.812-1.354
	c-0.698-0.622-1.196-1.291-1.608-1.952c-0.819-1.319-1.309-2.616-1.722-3.838c-0.407-1.223-0.676-2.387-0.911-3.454
	c-0.473-2.132-0.713-3.911-0.924-5.149c-0.114-0.615-0.188-1.107-0.267-1.433C204.338,27.215,204.296,27.037,204.296,27.037z"/>
<path fill="#e3e3e3" d="M223.628,44.021c1.554-0.264,2.984-0.866,4.293-1.651c1.31-0.782,2.491-1.754,3.569-2.808
	c1.08-1.055,2.022-2.24,2.844-3.478c0.82-1.234,1.504-2.556,1.942-3.91c0.439-1.35,0.653-2.738,0.47-3.972
	c-0.03-0.266-0.129-0.728-0.196-1.048c-0.079-0.34-0.16-0.68-0.259-0.924c-0.098-0.25-0.2-0.402-0.279-0.47
	c-0.079-0.068-0.162-0.112-0.347-0.176c-0.183-0.061-0.463-0.104-0.755-0.135l-0.425-0.032l-0.293-0.006l-0.134,0.013
	c-0.471,0.048-0.856,0.203-1.2,0.483c-0.698,0.555-1.237,1.722-1.463,2.98c-0.059,0.314-0.099,0.637-0.127,0.96
	c-0.015,0.149-0.029,0.348-0.031,0.458l-0.015,0.57c0,0.588,0.056,1.308,0.177,1.937c0.238,1.292,0.726,2.519,1.44,3.575
	c0.723,1.05,1.623,1.967,2.71,2.641c1.082,0.677,2.324,1.119,3.637,1.325c0.645,0.103,1.36,0.132,1.985,0.139
	c0.227,0.003,0.338-0.013,0.447-0.021c0.109,0,0.257-0.033,0.39-0.05c0.268-0.047,0.52-0.115,0.756-0.213
	c0.937-0.36,1.707-1.206,2.27-2.405c0.584-1.178,0.975-2.596,1.254-4.056c0.271-1.466,0.47-2.986,0.665-4.525l2.418,0.063
	c-0.075,1.526-0.141,3.019-0.135,4.512c-0.012,1.491,0.053,2.978,0.27,4.432c0.233,1.439,0.561,2.897,1.354,4.087
	c0.398,0.586,0.913,1.096,1.558,1.431c0.322,0.167,0.673,0.278,1.038,0.358c0.368,0.063,0.745,0.096,1.129,0.096
	c-0.375,0.071-0.759,0.122-1.151,0.119c-0.391-0.017-0.786-0.069-1.17-0.189c-0.38-0.126-0.759-0.291-1.093-0.525
	c-0.347-0.221-0.644-0.506-0.922-0.804c-1.094-1.225-1.711-2.757-2.133-4.271c-0.848-3.051-1.035-6.199-1.165-9.243l2.418,0.063
	c0.026,1.581,0.007,3.181-0.156,4.81c-0.163,1.628-0.41,3.301-1.071,4.997c-0.341,0.84-0.79,1.689-1.436,2.467
	c-0.63,0.78-1.479,1.464-2.432,1.918c-0.474,0.229-0.97,0.399-1.465,0.52c-0.251,0.053-0.484,0.114-0.765,0.146
	c-0.279,0.039-0.555,0.069-0.72,0.076c-0.937,0.06-1.787,0.001-2.689-0.111c-1.777-0.243-3.554-0.825-5.14-1.779
	c-1.583-0.951-2.982-2.258-3.976-3.821c-1.009-1.552-1.659-3.307-1.955-5.092c-0.148-0.911-0.211-1.756-0.19-2.729l0.026-0.601
	c0.014-0.28,0.033-0.472,0.06-0.71c0.055-0.454,0.139-0.904,0.245-1.353c0.215-0.896,0.526-1.787,1-2.653
	c0.472-0.86,1.124-1.713,2.034-2.371c0.904-0.665,2.061-1.039,3.149-1.066h0.452l0.292,0.02c0.331,0.03,0.485,0.054,0.741,0.089
	c0.478,0.09,0.97,0.194,1.515,0.427c0.537,0.229,1.129,0.62,1.555,1.15c0.43,0.528,0.659,1.098,0.805,1.587
	c0.146,0.499,0.209,0.93,0.274,1.357c0.059,0.449,0.105,0.757,0.14,1.271c0.134,1.886-0.32,3.644-1.017,5.193
	c-0.688,1.562-1.608,2.958-2.648,4.229c-1.043,1.27-2.24,2.39-3.527,3.373c-1.281,0.99-2.69,1.813-4.183,2.416
	C226.81,43.729,225.195,44.071,223.628,44.021z"/>
<path fill="#e3e3e3" d="M253.056,44.203c0,0,1.048-0.18,2.883-0.494c0.883-0.181,1.977-0.441,2.765-1.134
	c0.395-0.345,0.713-0.804,0.968-1.365c0.14-0.271,0.248-0.586,0.363-0.899c0.024-0.105,0.117-0.364,0.144-0.501
	c0.028-0.146,0.063-0.285,0.084-0.454c0.199-1.301-0.144-2.62-0.884-4.14c-0.712-1.521-1.882-3.196-2.425-5.569
	c-0.068-0.293-0.119-0.598-0.156-0.907l-0.026-0.233l-0.013-0.179l-0.004-0.094l-0.009-0.188l0.008-0.321
	c0.031-0.792,0.239-1.552,0.614-2.264c0.766-1.437,2.067-2.293,3.277-2.797c2.476-0.988,4.969-0.978,7.401-0.458
	c1.214,0.296,2.426,0.75,3.57,1.527c1.128,0.758,2.233,2,2.626,3.605c0.387,1.601,0.025,3.14-0.686,4.364
	c-0.663,1.139-1.411,1.938-2.104,2.688c-1.367,1.469-2.664,2.741-3.091,3.945c-0.213,0.582-0.232,1.136-0.063,1.694
	c0.076,0.345,0.446,0.799,1.01,1.089c1.136,0.603,2.577,0.859,3.805,1.023c1.249,0.147,2.372,0.232,3.299,0.291
	c0.928,0.049,1.664,0.116,2.165,0.158c0.501,0.048,0.766,0.095,0.766,0.095s-1.05,0.195-2.887,0.537
	c-0.924,0.155-2.05,0.359-3.383,0.441c-1.334,0.066-2.874,0.173-4.687-0.454c-0.886-0.317-1.94-0.933-2.555-2.176
	c-0.519-1.016-0.615-2.333-0.335-3.498c0.608-2.348,2.093-3.938,3.279-5.458c0.596-0.755,1.177-1.499,1.5-2.156
	c0.288-0.55,0.344-1.185,0.214-1.618c-0.124-0.438-0.495-0.881-1.104-1.295c-0.607-0.406-1.408-0.719-2.252-0.91
	c-1.681-0.402-3.614-0.354-5.044,0.168c-0.707,0.268-1.219,0.646-1.451,1.021c-0.117,0.182-0.203,0.421-0.229,0.636l-0.014,0.057
	l-0.001,0.188l-0.001,0.094v0.023c-0.006-0.129-0.001-0.025-0.002-0.05l0.002,0.035l0.005,0.142
	c0.007,0.188,0.022,0.379,0.052,0.573c0.216,1.554,1.056,3.239,1.713,5.078c0.326,0.922,0.609,1.903,0.701,2.921
	c0.087,1.015-0.034,2.04-0.322,2.931c-0.063,0.22-0.155,0.453-0.244,0.678c-0.096,0.232-0.154,0.328-0.268,0.575
	c-0.208,0.375-0.405,0.739-0.656,1.08c-0.492,0.675-1.11,1.26-1.788,1.635c-1.387,0.765-2.661,0.677-3.593,0.646
	c-0.953-0.046-1.678-0.166-2.176-0.222C253.321,44.239,253.056,44.203,253.056,44.203z"/>
<path fill="#e3e3e3" d="M294.159,24.775c-0.657-1.154-1.615-2.134-2.765-2.567c-1.142-0.461-2.397-0.312-3.537,0.08
	c-1.149,0.403-2.213,1.074-3.171,1.862c-0.956,0.794-1.838,1.686-2.598,2.671c-1.507,1.963-2.65,4.237-3.04,6.509
	c-0.386,2.29,0.189,4.398,1.704,5.811c0.768,0.729,1.599,1.166,2.561,1.354c0.947,0.178,1.965,0.078,2.961-0.226
	c0.995-0.31,1.952-0.857,2.774-1.554c0.411-0.349,0.789-0.736,1.124-1.153c0.168-0.207,0.326-0.423,0.469-0.646l0.054-0.083
	l0.027-0.041l0.014-0.021l0.007-0.011c-0.017,0.027,0.046-0.075-0.035,0.059l0.122-0.217l0.244-0.433
	c0.19-0.313,0.25-0.511,0.369-0.754c0.112-0.217,0.206-0.502,0.311-0.766c0.21-0.532,0.386-1.087,0.523-1.661
	c0.288-1.145,0.457-2.353,0.553-3.595c0.197-2.49,0.069-5.098,0.143-7.813h3.705c-0.035,1.493-0.143,2.893-0.229,4.293
	c-0.09,1.396-0.172,2.779-0.213,4.148c-0.038,1.366-0.063,2.724,0.026,4.036c0.042,0.656,0.114,1.299,0.227,1.909
	c0.043,0.316,0.138,0.584,0.201,0.881c0.089,0.271,0.178,0.525,0.281,0.783c0.295,0.69,0.541,1.144,0.863,1.718
	c0.31,0.544,0.671,1.038,1.076,1.479c0.809,0.894,1.853,1.499,3.088,1.883c1.234,0.389,2.623,0.515,4.023,0.7
	c1.401,0.167,2.834,0.369,4.19,0.791c-1.419-0.037-2.805,0.083-4.21,0.199c-1.404,0.128-2.845,0.226-4.367,0.04
	c-0.758-0.097-1.537-0.272-2.277-0.594c-0.742-0.315-1.444-0.749-2.068-1.262s-1.181-1.096-1.658-1.715
	c-0.466-0.588-0.928-1.352-1.246-1.927c-0.199-0.374-0.363-0.778-0.515-1.166c-0.114-0.382-0.265-0.776-0.342-1.153
	c-0.189-0.762-0.317-1.513-0.41-2.255c-0.184-1.484-0.264-2.94-0.28-4.383c-0.01-1.44,0.024-2.866,0.063-4.276
	c0.037-1.406,0.09-2.813,0.071-4.131h3.705c0.079,2.582,0.218,5.28,0.051,8.082c-0.087,1.399-0.258,2.829-0.595,4.261
	c-0.162,0.716-0.374,1.433-0.638,2.137c-0.138,0.353-0.263,0.694-0.453,1.067c-0.173,0.352-0.363,0.77-0.524,1.021l-0.251,0.429
	l-0.125,0.215l-0.207,0.316c-0.221,0.332-0.461,0.648-0.714,0.951c-0.505,0.608-1.065,1.164-1.672,1.663
	c-1.215,0.993-2.612,1.773-4.156,2.231c-1.535,0.465-3.246,0.567-4.892,0.168c-1.635-0.375-3.182-1.337-4.267-2.497
	c-1.119-1.156-1.96-2.675-2.295-4.265c-0.338-1.595-0.228-3.191,0.127-4.647c0.724-2.928,2.312-5.396,4.263-7.426
	c0.98-1.013,2.054-1.936,3.256-2.681c1.199-0.743,2.507-1.347,3.92-1.639c1.396-0.292,2.975-0.182,4.22,0.571
	C292.991,22.271,293.729,23.537,294.159,24.775z"/>
<g>
	<path fill="#e3e3e3" d="M248.148,26.634c-0.264,0-0.527-0.087-0.747-0.259c-0.458-0.358-0.632-0.992-0.453-1.653l0.074-0.275
		l0.218-0.184c0.413-0.346,0.969-0.361,1.41-0.049c0.024,0.006,0.05,0.013,0.074,0.02l0.588,0.168l0.064,0.607
		c0.07,0.658-0.176,1.211-0.657,1.478C248.541,26.586,248.345,26.634,248.148,26.634z M247.874,25.312l-0.298,0.361
		c0.133,0.107,0.344,0.158,0.55,0.113L247.874,25.312z M248.468,25.131l0.23,0.063c-0.002-0.067-0.142-0.304-0.43-0.359
		l-0.164,0.199l0.303,0.081l0.068-0.01L248.468,25.131z"/>
</g>
<g>
	<path fill="#e3e3e3" d="M197.94,25.633c-0.264,0.001-0.527-0.087-0.747-0.259c-0.457-0.356-0.632-0.99-0.454-1.651l0.074-0.28
		l0.225-0.185c0.415-0.341,0.967-0.354,1.403-0.045c0.025,0.006,0.051,0.013,0.076,0.02l0.587,0.169l0.064,0.607
		c0.069,0.658-0.177,1.21-0.657,1.477C198.333,25.585,198.137,25.633,197.94,25.633z M197.666,24.311l-0.3,0.359
		c0.132,0.11,0.347,0.16,0.552,0.116L197.666,24.311z M198.26,24.13l0.229,0.062c-0.002-0.066-0.141-0.302-0.427-0.358l-0.165,0.199
		l0.302,0.081l0.068-0.01L198.26,24.13z"/>
</g>
</svg>
